<svg width="48" height="48" viewBox="0 0 48 48" fill="none" xmlns="http://www.w3.org/2000/svg">
<path d="M47.282 29.6C44.075 42.3683 31.052 50.1394 18.192 46.9555C5.33737 43.7719 -2.48864 30.8391 0.719023 18.0714C3.9237 5.30175 16.9477 -2.47028 29.8034 0.713279C42.6617 3.89684 50.4873 16.8307 47.282 29.6Z" fill="#F7931A"/>
<path d="M34.5794 20.5211C35.0571 17.3491 32.6251 15.6447 29.3001 14.5072L30.3784 10.2111L27.7454 9.55924L26.6951 13.7422C26.0021 13.5707 25.2918 13.4092 24.5848 13.2493L25.6418 9.03853L23.0104 8.38672L21.9308 12.6822C21.3578 12.5525 20.7954 12.4247 20.2491 12.2896L20.2518 12.2764L16.6204 11.376L15.9198 14.1689C15.9198 14.1689 17.8734 14.6135 17.8321 14.6413C18.8988 14.9058 19.0911 15.6066 19.0591 16.1621L17.8308 21.0564C17.9041 21.0753 17.9991 21.1014 18.1044 21.1438C18.0164 21.1219 17.9228 21.0984 17.8264 21.0753L16.1044 27.931C15.9738 28.2528 15.6428 28.7357 14.8974 28.5523C14.9238 28.5901 12.9824 28.078 12.9824 28.078L11.6758 31.0709L15.1024 31.9193C15.7394 32.0779 16.3651 32.2434 16.9798 32.4003L15.8908 36.7458L18.5211 37.3976L19.6001 33.0984C20.3194 33.2918 21.0168 33.4709 21.6994 33.6394L20.6241 37.9183L23.2574 38.5701L24.3474 34.2329C28.8384 35.0764 32.2154 34.7361 33.6361 30.7031C34.7818 27.4556 33.5794 25.5823 31.2168 24.3605C32.9371 23.9665 34.2338 22.8423 34.5794 20.5211ZM28.5631 28.8999C27.7484 32.1477 22.2431 30.3919 20.4571 29.9513L21.9031 24.1949C23.6881 24.6369 29.4131 25.5128 28.5631 28.8999ZM29.3764 20.4744C28.6344 23.4286 24.0514 21.9274 22.5648 21.5592L23.8754 16.3382C25.3618 16.7063 30.1501 17.3932 29.3764 20.4744Z" fill="white"/>
</svg>
