<svg width="32" height="32" viewBox="0 0 32 32" fill="none" xmlns="http://www.w3.org/2000/svg">
<path d="M18.6665 10.668H19.9998C20.3535 10.668 20.6926 10.5275 20.9426 10.2774C21.1927 10.0274 21.3332 9.68826 21.3332 9.33464C21.3332 8.98101 21.1927 8.64187 20.9426 8.39183C20.6926 8.14178 20.3535 8.0013 19.9998 8.0013H18.6665C18.3129 8.0013 17.9737 8.14178 17.7237 8.39183C17.4736 8.64187 17.3332 8.98101 17.3332 9.33464C17.3332 9.68826 17.4736 10.0274 17.7237 10.2774C17.9737 10.5275 18.3129 10.668 18.6665 10.668ZM18.6665 16.0013H19.9998C20.3535 16.0013 20.6926 15.8608 20.9426 15.6108C21.1927 15.3607 21.3332 15.0216 21.3332 14.668C21.3332 14.3143 21.1927 13.9752 20.9426 13.7252C20.6926 13.4751 20.3535 13.3346 19.9998 13.3346H18.6665C18.3129 13.3346 17.9737 13.4751 17.7237 13.7252C17.4736 13.9752 17.3332 14.3143 17.3332 14.668C17.3332 15.0216 17.4736 15.3607 17.7237 15.6108C17.9737 15.8608 18.3129 16.0013 18.6665 16.0013ZM11.9998 10.668H13.3332C13.6868 10.668 14.0259 10.5275 14.276 10.2774C14.526 10.0274 14.6665 9.68826 14.6665 9.33464C14.6665 8.98101 14.526 8.64187 14.276 8.39183C14.0259 8.14178 13.6868 8.0013 13.3332 8.0013H11.9998C11.6462 8.0013 11.3071 8.14178 11.057 8.39183C10.807 8.64187 10.6665 8.98101 10.6665 9.33464C10.6665 9.68826 10.807 10.0274 11.057 10.2774C11.3071 10.5275 11.6462 10.668 11.9998 10.668ZM11.9998 16.0013H13.3332C13.6868 16.0013 14.0259 15.8608 14.276 15.6108C14.526 15.3607 14.6665 15.0216 14.6665 14.668C14.6665 14.3143 14.526 13.9752 14.276 13.7252C14.0259 13.4751 13.6868 13.3346 13.3332 13.3346H11.9998C11.6462 13.3346 11.3071 13.4751 11.057 13.7252C10.807 13.9752 10.6665 14.3143 10.6665 14.668C10.6665 15.0216 10.807 15.3607 11.057 15.6108C11.3071 15.8608 11.6462 16.0013 11.9998 16.0013ZM27.9998 26.668H26.6665V4.0013C26.6665 3.64768 26.526 3.30854 26.276 3.05849C26.0259 2.80844 25.6868 2.66797 25.3332 2.66797H6.6665C6.31288 2.66797 5.97374 2.80844 5.72369 3.05849C5.47365 3.30854 5.33317 3.64768 5.33317 4.0013V26.668H3.99984C3.64622 26.668 3.30708 26.8084 3.05703 27.0585C2.80698 27.3085 2.6665 27.6477 2.6665 28.0013C2.6665 28.3549 2.80698 28.6941 3.05703 28.9441C3.30708 29.1942 3.64622 29.3346 3.99984 29.3346H27.9998C28.3535 29.3346 28.6926 29.1942 28.9426 28.9441C29.1927 28.6941 29.3332 28.3549 29.3332 28.0013C29.3332 27.6477 29.1927 27.3085 28.9426 27.0585C28.6926 26.8084 28.3535 26.668 27.9998 26.668ZM17.3332 26.668H14.6665V21.3346H17.3332V26.668ZM23.9998 26.668H19.9998V20.0013C19.9998 19.6477 19.8594 19.3085 19.6093 19.0585C19.3593 18.8084 19.0201 18.668 18.6665 18.668H13.3332C12.9795 18.668 12.6404 18.8084 12.3904 19.0585C12.1403 19.3085 11.9998 19.6477 11.9998 20.0013V26.668H7.99984V5.33464H23.9998V26.668Z" fill="#00C7F9"/>
</svg>
