<svg width="15" height="15" viewBox="0 0 15 15" fill="none" xmlns="http://www.w3.org/2000/svg">
<path d="M13.0242 14.5C12.7242 14.5 12.5242 14.4 12.3242 14.2L7.02417 8.9L1.72417 14.2C1.32417 14.6 0.72417 14.6 0.32417 14.2C-0.0758301 13.8 -0.0758301 13.2 0.32417 12.8L5.62417 7.5L0.32417 2.2C-0.0758301 1.8 -0.0758301 1.2 0.32417 0.8C0.72417 0.4 1.32417 0.4 1.72417 0.8L7.02417 6.1L12.3242 0.8C12.7242 0.4 13.3242 0.4 13.7242 0.8C14.1242 1.2 14.1242 1.8 13.7242 2.2L8.42417 7.5L13.7242 12.8C14.1242 13.2 14.1242 13.8 13.7242 14.2C13.5242 14.4 13.3242 14.5 13.0242 14.5Z" fill="#022173"/>
</svg>
