<svg width="32" height="32" viewBox="0 0 32 32" fill="none" xmlns="http://www.w3.org/2000/svg">
<path d="M18.6667 14.6641H17.3333V9.33073H20C20.3536 9.33073 20.6928 9.4712 20.9428 9.72125C21.1929 9.9713 21.3333 10.3104 21.3333 10.6641C21.3333 11.0177 21.4738 11.3568 21.7239 11.6069C21.9739 11.8569 22.313 11.9974 22.6667 11.9974C23.0203 11.9974 23.3594 11.8569 23.6095 11.6069C23.8595 11.3568 24 11.0177 24 10.6641C24 9.6032 23.5786 8.58578 22.8284 7.83564C22.0783 7.08549 21.0609 6.66406 20 6.66406H17.3333V3.9974C17.3333 3.64377 17.1929 3.30464 16.9428 3.05459C16.6928 2.80454 16.3536 2.66406 16 2.66406C15.6464 2.66406 15.3072 2.80454 15.0572 3.05459C14.8071 3.30464 14.6667 3.64377 14.6667 3.9974V6.66406H13.3333C11.9188 6.66406 10.5623 7.22597 9.5621 8.22616C8.5619 9.22635 8 10.5829 8 11.9974C8 13.4119 8.5619 14.7684 9.5621 15.7686C10.5623 16.7688 11.9188 17.3307 13.3333 17.3307H14.6667V22.6641H12C11.6464 22.6641 11.3072 22.5236 11.0572 22.2735C10.8071 22.0235 10.6667 21.6844 10.6667 21.3307C10.6667 20.9771 10.5262 20.638 10.2761 20.3879C10.0261 20.1379 9.68696 19.9974 9.33333 19.9974C8.97971 19.9974 8.64057 20.1379 8.39052 20.3879C8.14048 20.638 8 20.9771 8 21.3307C8 22.3916 8.42143 23.409 9.17157 24.1592C9.92172 24.9093 10.9391 25.3307 12 25.3307H14.6667V27.9974C14.6667 28.351 14.8071 28.6902 15.0572 28.9402C15.3072 29.1903 15.6464 29.3307 16 29.3307C16.3536 29.3307 16.6928 29.1903 16.9428 28.9402C17.1929 28.6902 17.3333 28.351 17.3333 27.9974V25.3307H18.6667C20.0812 25.3307 21.4377 24.7688 22.4379 23.7686C23.4381 22.7684 24 21.4119 24 19.9974C24 18.5829 23.4381 17.2264 22.4379 16.2262C21.4377 15.226 20.0812 14.6641 18.6667 14.6641ZM14.6667 14.6641H13.3333C12.6261 14.6641 11.9478 14.3831 11.4477 13.883C10.9476 13.3829 10.6667 12.7046 10.6667 11.9974C10.6667 11.2902 10.9476 10.6119 11.4477 10.1118C11.9478 9.61168 12.6261 9.33073 13.3333 9.33073H14.6667V14.6641ZM18.6667 22.6641H17.3333V17.3307H18.6667C19.3739 17.3307 20.0522 17.6117 20.5523 18.1118C21.0524 18.6119 21.3333 19.2902 21.3333 19.9974C21.3333 20.7046 21.0524 21.3829 20.5523 21.883C20.0522 22.3831 19.3739 22.6641 18.6667 22.6641Z" fill="#00C7F9"/>
</svg>
