<svg width="32" height="32" viewBox="0 0 32 32" fill="none" xmlns="http://www.w3.org/2000/svg">
<path d="M28.5476 11.5215C28.5476 11.5215 28.5476 11.5215 28.5476 11.4548C27.6081 8.88977 25.9035 6.67518 23.6642 5.11062C21.425 3.54606 18.7592 2.70703 16.0276 2.70703C13.2959 2.70703 10.6302 3.54606 8.39092 5.11062C6.15169 6.67518 4.44705 8.88977 3.50758 11.4548C3.50758 11.4548 3.50758 11.4548 3.50758 11.5215C2.45841 14.416 2.45841 17.5869 3.50758 20.4815C3.50758 20.4815 3.50758 20.4815 3.50758 20.5481C4.44705 23.1132 6.15169 25.3278 8.39092 26.8923C10.6302 28.4569 13.2959 29.2959 16.0276 29.2959C18.7592 29.2959 21.425 28.4569 23.6642 26.8923C25.9035 25.3278 27.6081 23.1132 28.5476 20.5481C28.5476 20.5481 28.5476 20.5481 28.5476 20.4815C29.5967 17.5869 29.5967 14.416 28.5476 11.5215ZM5.68091 18.6681C5.21855 16.9204 5.21855 15.0825 5.68091 13.3348H8.16091C7.94762 15.1062 7.94762 16.8968 8.16091 18.6681H5.68091ZM6.77424 21.3348H8.64091C8.95387 22.5239 9.40119 23.6735 9.97424 24.7615C8.66664 23.8707 7.57357 22.7002 6.77424 21.3348ZM8.64091 10.6681H6.77424C7.56207 9.30692 8.64117 8.13676 9.93424 7.24147C9.37498 8.33113 8.9411 9.48069 8.64091 10.6681ZM14.6676 26.2681C13.0299 25.0664 11.8798 23.3151 11.4276 21.3348H14.6676V26.2681ZM14.6676 18.6681H10.8542C10.6054 16.8991 10.6054 15.1039 10.8542 13.3348H14.6676V18.6681ZM14.6676 10.6681H11.4276C11.8798 8.68783 13.0299 6.93656 14.6676 5.7348V10.6681ZM25.2276 10.6681H23.3609C23.048 9.47901 22.6006 8.32939 22.0276 7.24147C23.3352 8.13223 24.4282 9.30272 25.2276 10.6681ZM17.3342 5.7348C18.9719 6.93656 20.122 8.68783 20.5742 10.6681H17.3342V5.7348ZM17.3342 26.2681V21.3348H20.5742C20.122 23.3151 18.9719 25.0664 17.3342 26.2681ZM21.1476 18.6681H17.3342V13.3348H21.1476C21.3964 15.1039 21.3964 16.8991 21.1476 18.6681ZM22.0676 24.7615C22.6406 23.6735 23.088 22.5239 23.4009 21.3348H25.2676C24.4682 22.7002 23.3752 23.8707 22.0676 24.7615ZM26.3209 18.6681H23.8409C23.9493 17.7834 24.0028 16.8928 24.0009 16.0015C24.0024 15.1101 23.9489 14.2196 23.8409 13.3348H26.3209C26.7833 15.0825 26.7833 16.9204 26.3209 18.6681Z" fill="#00C7F9"/>
</svg>
