<svg width="32" height="32" viewBox="0 0 32 32" fill="none" xmlns="http://www.w3.org/2000/svg">
<path d="M22.7866 3.76042C21.5603 2.75186 20.1244 2.02979 18.5835 1.64688C17.0426 1.26396 15.4357 1.22987 13.8799 1.54708C11.8084 1.96551 9.90792 2.98985 8.41951 4.49012C6.9311 5.9904 5.9219 7.89899 5.51993 9.97375C5.22639 11.5294 5.27974 13.1306 5.67615 14.6633C6.07256 16.1959 6.80228 17.6222 7.81327 18.8404C8.75151 19.8992 9.28931 21.2531 9.33327 22.6671V26.6671C9.33327 27.728 9.75469 28.7454 10.5048 29.4955C11.255 30.2457 12.2724 30.6671 13.3333 30.6671H18.6666C19.7275 30.6671 20.7449 30.2457 21.495 29.4955C22.2452 28.7454 22.6666 27.728 22.6666 26.6671V22.9204C22.7113 21.3593 23.2849 19.8597 24.2933 18.6671C26.0601 16.4815 26.893 13.6868 26.6108 10.8906C26.3287 8.09433 24.9544 5.5224 22.7866 3.73375V3.76042ZM19.9999 26.6671C19.9999 27.0207 19.8595 27.3598 19.6094 27.6099C19.3594 27.8599 19.0202 28.0004 18.6666 28.0004H13.3333C12.9796 28.0004 12.6405 27.8599 12.3905 27.6099C12.1404 27.3598 11.9999 27.0207 11.9999 26.6671V25.3338H19.9999V26.6671ZM22.2266 17.0138C20.8859 18.6039 20.1038 20.5898 19.9999 22.6671H17.3333V18.6671C17.3333 18.3135 17.1928 17.9743 16.9427 17.7243C16.6927 17.4742 16.3536 17.3338 15.9999 17.3338C15.6463 17.3338 15.3072 17.4742 15.0571 17.7243C14.8071 17.9743 14.6666 18.3135 14.6666 18.6671V22.6671H11.9999C11.9648 20.6246 11.2092 18.6601 9.8666 17.1204C8.98079 16.0591 8.38512 14.7863 8.13768 13.4262C7.89024 12.0661 7.99947 10.6651 8.45472 9.35979C8.90996 8.05448 9.6957 6.88941 10.7353 5.97818C11.7749 5.06696 13.0329 4.44068 14.3866 4.16042C15.55 3.92087 16.7521 3.94341 17.9058 4.22638C19.0594 4.50935 20.1355 5.04565 21.056 5.79635C21.9765 6.54706 22.7183 7.49332 23.2275 8.56644C23.7367 9.63956 24.0006 10.8126 23.9999 12.0004C24.0098 13.8269 23.3827 15.5997 22.2266 17.0138Z" fill="#00C7F9"/>
</svg>
