<svg width="49" height="48" viewBox="0 0 49 48" fill="none" xmlns="http://www.w3.org/2000/svg">
<path d="M47.7761 29.8056C44.5691 42.6626 31.5462 50.4876 18.6862 47.2816C5.83151 44.0759 -1.9945 31.0532 1.21316 18.1969C4.41784 5.33857 17.4418 -2.48743 30.2975 0.718232C43.1558 3.9239 50.9815 16.9476 47.7761 29.8056Z" fill="#F7931A"/>
<path d="M27.1068 10C27.3768 10 27.5638 10.2696 27.4695 10.5226C26.3986 13.3977 25.3177 16.4552 24.0618 19.5259C23.8661 20.0046 23.733 20.75 24.2502 20.75H33.9805C34.1455 20.75 34.2961 20.8441 34.3685 20.9925C34.4446 21.1485 34.4199 21.335 34.3056 21.4658L20.3063 37.4892C20.0658 37.7645 19.6272 37.7405 19.6172 37.3752C19.6148 37.2857 19.6353 37.2078 19.6724 37.1264L24.6642 26.1622C24.7129 26.0553 24.738 25.9392 24.738 25.8217C24.738 25.3679 24.3701 25 23.9163 25H15.2187C14.8186 25 14.4941 24.6756 14.4941 24.2754C14.4941 24.098 14.5592 23.9267 14.6771 23.7941L26.8178 10.1298C26.8912 10.0473 26.9964 10 27.1068 10Z" fill="white"/>
</svg>
