<svg width="49" height="48" viewBox="0 0 49 48" fill="none" xmlns="http://www.w3.org/2000/svg">
<path d="M45.3301 26.6667C45.3301 38.4487 35.9281 48 24.3301 48C12.7321 48 3.33008 38.4487 3.33008 26.6667C3.33008 14.8846 23.2321 0 24.3301 0C25.4281 0 45.3301 14.8846 45.3301 26.6667Z" fill="#00A398"/>
<path d="M32.7409 23.6485C33.1207 21.1264 31.1869 19.7711 28.5431 18.8666L29.4005 15.4506L27.3069 14.9323L26.4718 18.2583C25.9207 18.122 25.3559 17.9936 24.7937 17.8664L25.6342 14.5183L23.5419 14L22.6834 17.4155C22.2278 17.3123 21.7807 17.2107 21.3463 17.1033L21.3484 17.0928L18.461 16.3769L17.9039 18.5976C17.9039 18.5976 19.4573 18.9511 19.4244 18.9733C20.2726 19.1836 20.4255 19.7408 20.4001 20.1825L19.4234 24.0742C19.4817 24.0892 19.5572 24.11 19.641 24.1437C19.571 24.1263 19.4965 24.1076 19.4199 24.0892L18.0507 29.5404C17.9468 29.7963 17.6836 30.1803 17.091 30.0345C17.1119 30.0645 15.5683 29.6573 15.5683 29.6573L14.5293 32.037L17.254 32.7117C17.7605 32.8378 18.258 32.9694 18.7467 33.0941L17.8808 36.5494L19.9723 37.0677L20.8302 33.6493C21.4022 33.803 21.9567 33.9454 22.4995 34.0794L21.6445 37.4817L23.7383 38L24.605 34.5513C28.176 35.222 30.8612 34.9514 31.9908 31.7446C32.9018 29.1624 31.9458 27.6729 30.0671 26.7013C31.435 26.3881 32.466 25.4942 32.7409 23.6485ZM27.9571 30.3109C27.3093 32.8933 22.9318 31.4972 21.5117 31.1468L22.6615 26.5697C24.0808 26.9211 28.6329 27.6176 27.9571 30.3109ZM28.6038 23.6114C28.0138 25.9604 24.3697 24.7667 23.1876 24.474L24.2297 20.3225C25.4116 20.6152 29.219 21.1614 28.6038 23.6114Z" fill="white"/>
</svg>
