<svg width="49" height="48" viewBox="0 0 49 48" fill="none" xmlns="http://www.w3.org/2000/svg">
<path d="M45.6602 26.6667C45.6602 38.4487 36.2581 48 24.6602 48C13.0622 48 3.66016 38.4487 3.66016 26.6667C3.66016 14.8846 23.5622 0 24.6602 0C25.7581 0 45.6602 14.8846 45.6602 26.6667Z" fill="#009393"/>
<path fill-rule="evenodd" clip-rule="evenodd" d="M33.1704 19V22.0906H26.7814V24.2335C31.2686 24.4625 34.6352 25.403 34.6602 26.5303L34.66 28.8803C34.635 30.0076 31.2686 30.9481 26.7814 31.1771V36.4359H22.539V31.1771C18.0517 30.9481 14.6851 30.0076 14.6602 28.8803L14.6603 26.5303C14.6853 25.403 18.0517 24.4625 22.539 24.2335V22.0906H16.1499V19H33.1704ZM24.6602 29.5626C29.4488 29.5626 33.4513 28.7673 34.4308 27.7053C33.6002 26.8047 30.5957 26.0959 26.7814 25.9012V28.1448C26.0977 28.1797 25.388 28.1981 24.6602 28.1981C23.9323 28.1981 23.2226 28.1797 22.539 28.1448V25.9012C18.7246 26.0959 15.7201 26.8047 14.8895 27.7053C15.869 28.7673 19.8715 29.5626 24.6602 29.5626Z" fill="white"/>
</svg>
