<svg width="21" height="20" viewBox="0 0 21 20" fill="none" xmlns="http://www.w3.org/2000/svg">
<path d="M5.304 13C5.17139 12.7703 4.95297 12.6027 4.6968 12.5341C4.44063 12.4655 4.16768 12.5014 3.938 12.634L2.206 13.634C1.97819 13.7676 1.81246 13.9858 1.74496 14.2411C1.67747 14.4964 1.71369 14.768 1.84573 14.9967C1.97776 15.2254 2.19489 15.3926 2.44974 15.4617C2.70458 15.5309 2.97644 15.4965 3.206 15.366L4.938 14.366C5.16767 14.2334 5.33526 14.015 5.4039 13.7588C5.47254 13.5026 5.4366 13.2297 5.304 13ZM2.206 6.366L3.938 7.366C4.05177 7.4327 4.17761 7.47623 4.30827 7.4941C4.43894 7.51196 4.57185 7.50381 4.69935 7.4701C4.82685 7.43639 4.94642 7.3778 5.05118 7.29769C5.15594 7.21758 5.24382 7.11754 5.30976 7.00333C5.3757 6.88912 5.4184 6.76299 5.4354 6.63221C5.4524 6.50143 5.44336 6.36858 5.40881 6.24131C5.37426 6.11403 5.31487 5.99485 5.23407 5.89063C5.15327 5.7864 5.05265 5.69918 4.938 5.634L3.206 4.634C2.97644 4.50348 2.70458 4.46906 2.44974 4.53825C2.19489 4.60744 1.97776 4.77462 1.84573 5.00331C1.71369 5.23199 1.67747 5.50362 1.74496 5.75892C1.81246 6.01421 1.97819 6.23245 2.206 6.366ZM4.5 10C4.5 9.73478 4.39464 9.48043 4.20711 9.29289C4.01957 9.10536 3.76522 9 3.5 9H1.5C1.23478 9 0.98043 9.10536 0.792893 9.29289C0.605357 9.48043 0.5 9.73478 0.5 10C0.5 10.2652 0.605357 10.5196 0.792893 10.7071C0.98043 10.8946 1.23478 11 1.5 11H3.5C3.76522 11 4.01957 10.8946 4.20711 10.7071C4.39464 10.5196 4.5 10.2652 4.5 10ZM15.696 7C15.8286 7.22967 16.047 7.39726 16.3032 7.4659C16.5594 7.53454 16.8323 7.4986 17.062 7.366L18.794 6.366C18.9086 6.30082 19.0093 6.2136 19.0901 6.10937C19.1709 6.00515 19.2303 5.88597 19.2648 5.75869C19.2994 5.63142 19.3084 5.49857 19.2914 5.36779C19.2744 5.23701 19.2317 5.11088 19.1658 4.99667C19.0998 4.88246 19.0119 4.78242 18.9072 4.70231C18.8024 4.62221 18.6828 4.56361 18.5553 4.5299C18.4278 4.49619 18.2949 4.48804 18.1643 4.5059C18.0336 4.52377 17.9078 4.5673 17.794 4.634L16.062 5.634C15.8323 5.76661 15.6647 5.98503 15.5961 6.2412C15.5275 6.49737 15.5634 6.77032 15.696 7ZM13.5 4.804C13.7297 4.9366 14.0026 4.97254 14.2588 4.9039C14.515 4.83526 14.7334 4.66767 14.866 4.438L15.866 2.706C15.9327 2.59223 15.9762 2.46639 15.9941 2.33572C16.012 2.20506 16.0038 2.07215 15.9701 1.94465C15.9364 1.81715 15.8778 1.69758 15.7977 1.59282C15.7176 1.48806 15.6175 1.40018 15.5033 1.33424C15.3891 1.26829 15.263 1.2256 15.1322 1.2086C15.0014 1.1916 14.8686 1.20064 14.7413 1.23519C14.614 1.26974 14.4949 1.32913 14.3906 1.40993C14.2864 1.49073 14.1992 1.59135 14.134 1.706L13.134 3.438C13.0014 3.66768 12.9655 3.94063 13.0341 4.1968C13.1027 4.45297 13.2703 4.67139 13.5 4.804ZM18.794 13.634L17.062 12.634C16.9482 12.5673 16.8224 12.5238 16.6917 12.5059C16.5611 12.488 16.4282 12.4962 16.3007 12.5299C16.1732 12.5636 16.0536 12.6222 15.9488 12.7023C15.8441 12.7824 15.7562 12.8825 15.6902 12.9967C15.6243 13.1109 15.5816 13.237 15.5646 13.3678C15.5476 13.4986 15.5566 13.6314 15.5912 13.7587C15.6257 13.886 15.6851 14.0051 15.7659 14.1094C15.8467 14.2136 15.9474 14.3008 16.062 14.366L17.794 15.366C18.0236 15.4965 18.2954 15.5309 18.5503 15.4617C18.8051 15.3926 19.0222 15.2254 19.1543 14.9967C19.2863 14.768 19.3225 14.4964 19.255 14.2411C19.1875 13.9858 19.0218 13.7676 18.794 13.634ZM14.866 15.562C14.8008 15.4474 14.7136 15.3467 14.6094 15.2659C14.5051 15.1851 14.386 15.1257 14.2587 15.0912C14.1314 15.0566 13.9986 15.0476 13.8678 15.0646C13.737 15.0816 13.6109 15.1243 13.4967 15.1902C13.3825 15.2562 13.2824 15.3441 13.2023 15.4488C13.1222 15.5536 13.0636 15.6732 13.0299 15.8007C12.9962 15.9282 12.988 16.0611 13.0059 16.1917C13.0238 16.3224 13.0673 16.4482 13.134 16.562L14.134 18.294C14.1992 18.4086 14.2864 18.5093 14.3906 18.5901C14.4949 18.6709 14.614 18.7303 14.7413 18.7648C14.8686 18.7994 15.0014 18.8084 15.1322 18.7914C15.263 18.7744 15.3891 18.7317 15.5033 18.6658C15.6175 18.5998 15.7176 18.5119 15.7977 18.4072C15.8778 18.3024 15.9364 18.1828 15.9701 18.0553C16.0038 17.9278 16.012 17.7949 15.9941 17.6643C15.9762 17.5336 15.9327 17.4078 15.866 17.294L14.866 15.562ZM19.5 9H17.5C17.2348 9 16.9804 9.10536 16.7929 9.29289C16.6054 9.48043 16.5 9.73478 16.5 10C16.5 10.2652 16.6054 10.5196 16.7929 10.7071C16.9804 10.8946 17.2348 11 17.5 11H19.5C19.7652 11 20.0196 10.8946 20.2071 10.7071C20.3946 10.5196 20.5 10.2652 20.5 10C20.5 9.73478 20.3946 9.48043 20.2071 9.29289C20.0196 9.10536 19.7652 9 19.5 9ZM10.5 16C10.2348 16 9.98043 16.1054 9.79289 16.2929C9.60536 16.4804 9.5 16.7348 9.5 17V19C9.5 19.2652 9.60536 19.5196 9.79289 19.7071C9.98043 19.8946 10.2348 20 10.5 20C10.7652 20 11.0196 19.8946 11.2071 19.7071C11.3946 19.5196 11.5 19.2652 11.5 19V17C11.5 16.7348 11.3946 16.4804 11.2071 16.2929C11.0196 16.1054 10.7652 16 10.5 16ZM7.5 15.196C7.27032 15.0634 6.99737 15.0275 6.7412 15.0961C6.48503 15.1647 6.26661 15.3323 6.134 15.562L5.134 17.294C5.00348 17.5236 4.96906 17.7954 5.03825 18.0503C5.10744 18.3051 5.27462 18.5222 5.50331 18.6543C5.73199 18.7863 6.00362 18.8225 6.25892 18.755C6.51421 18.6875 6.73245 18.5218 6.866 18.294L7.866 16.562C7.9986 16.3323 8.03454 16.0594 7.9659 15.8032C7.89726 15.547 7.72967 15.3286 7.5 15.196ZM10.5 0C10.2348 0 9.98043 0.105357 9.79289 0.292893C9.60536 0.48043 9.5 0.734784 9.5 1V3C9.5 3.26522 9.60536 3.51957 9.79289 3.70711C9.98043 3.89464 10.2348 4 10.5 4C10.7652 4 11.0196 3.89464 11.2071 3.70711C11.3946 3.51957 11.5 3.26522 11.5 3V1C11.5 0.734784 11.3946 0.48043 11.2071 0.292893C11.0196 0.105357 10.7652 0 10.5 0Z" fill="#022173"/>
</svg>
