<svg width="32" height="32" viewBox="0 0 32 32" fill="none" xmlns="http://www.w3.org/2000/svg">
<path d="M16.0002 17.3346C15.6465 17.3346 15.3074 17.4751 15.0574 17.7252C14.8073 17.9752 14.6668 18.3143 14.6668 18.668V22.668C14.6668 23.0216 14.8073 23.3607 15.0574 23.6108C15.3074 23.8608 15.6465 24.0013 16.0002 24.0013C16.3538 24.0013 16.6929 23.8608 16.943 23.6108C17.193 23.3607 17.3335 23.0216 17.3335 22.668V18.668C17.3335 18.3143 17.193 17.9752 16.943 17.7252C16.6929 17.4751 16.3538 17.3346 16.0002 17.3346ZM22.6668 12.0013V9.33463C22.6668 7.56652 21.9645 5.87083 20.7142 4.62059C19.464 3.37035 17.7683 2.66797 16.0002 2.66797C14.2321 2.66797 12.5364 3.37035 11.2861 4.62059C10.0359 5.87083 9.3335 7.56652 9.3335 9.33463V12.0013C8.27263 12.0013 7.25521 12.4227 6.50507 13.1729C5.75492 13.923 5.3335 14.9404 5.3335 16.0013V25.3346C5.3335 26.3955 5.75492 27.4129 6.50507 28.1631C7.25521 28.9132 8.27263 29.3346 9.3335 29.3346H22.6668C23.7277 29.3346 24.7451 28.9132 25.4953 28.1631C26.2454 27.4129 26.6668 26.3955 26.6668 25.3346V16.0013C26.6668 14.9404 26.2454 13.923 25.4953 13.1729C24.7451 12.4227 23.7277 12.0013 22.6668 12.0013ZM12.0002 9.33463C12.0002 8.27377 12.4216 7.25635 13.1717 6.50621C13.9219 5.75606 14.9393 5.33464 16.0002 5.33464C17.061 5.33464 18.0784 5.75606 18.8286 6.50621C19.5787 7.25635 20.0002 8.27377 20.0002 9.33463V12.0013H12.0002V9.33463ZM24.0002 25.3346C24.0002 25.6883 23.8597 26.0274 23.6096 26.2774C23.3596 26.5275 23.0205 26.668 22.6668 26.668H9.3335C8.97987 26.668 8.64074 26.5275 8.39069 26.2774C8.14064 26.0274 8.00016 25.6883 8.00016 25.3346V16.0013C8.00016 15.6477 8.14064 15.3085 8.39069 15.0585C8.64074 14.8084 8.97987 14.668 9.3335 14.668H22.6668C23.0205 14.668 23.3596 14.8084 23.6096 15.0585C23.8597 15.3085 24.0002 15.6477 24.0002 16.0013V25.3346Z" fill="#00C7F9"/>
</svg>
