<svg width="24" height="24" viewBox="0 0 24 24" fill="none" xmlns="http://www.w3.org/2000/svg">
<path d="M19.3333 24C16.8 24 14.6667 21.8667 14.6667 19.3333C14.6667 16.8 16.8 14.6667 19.3333 14.6667C21.8667 14.6667 24 16.8 24 19.3333C24 21.8667 21.8667 24 19.3333 24ZM19.3333 17.3333C18.2667 17.3333 17.3333 18.2667 17.3333 19.3333C17.3333 20.4 18.2667 21.3333 19.3333 21.3333C20.4 21.3333 21.3333 20.4 21.3333 19.3333C21.3333 18.2667 20.4 17.3333 19.3333 17.3333ZM2.66667 22.6667C2.26667 22.6667 2 22.5333 1.73333 22.2667C1.2 21.7333 1.2 20.9333 1.73333 20.4L20.4 1.73333C20.9333 1.2 21.7333 1.2 22.2667 1.73333C22.8 2.26667 22.8 3.06667 22.2667 3.6L3.6 22.2667C3.33333 22.5333 3.06667 22.6667 2.66667 22.6667ZM4.66667 9.33333C2.13333 9.33333 0 7.2 0 4.66667C0 2.13333 2.13333 0 4.66667 0C7.2 0 9.33333 2.13333 9.33333 4.66667C9.33333 7.2 7.2 9.33333 4.66667 9.33333ZM4.66667 2.66667C3.6 2.66667 2.66667 3.6 2.66667 4.66667C2.66667 5.73333 3.6 6.66667 4.66667 6.66667C5.73333 6.66667 6.66667 5.73333 6.66667 4.66667C6.66667 3.6 5.73333 2.66667 4.66667 2.66667Z" fill="#022173"/>
</svg>
