<svg width="20" height="20" viewBox="0 0 20 20" fill="none" xmlns="http://www.w3.org/2000/svg">
<path d="M9.28024 13.29C9.23723 13.3375 9.19716 13.3876 9.16024 13.44C9.12239 13.4957 9.09213 13.5563 9.07024 13.62C9.04141 13.6767 9.02118 13.7374 9.01024 13.8C9.00533 13.8666 9.00533 13.9334 9.01024 14C9.00686 14.1312 9.03426 14.2613 9.09024 14.38C9.13515 14.5041 9.20681 14.6168 9.30012 14.7101C9.39344 14.8034 9.50614 14.8751 9.63024 14.92C9.74994 14.9729 9.87937 15.0002 10.0102 15.0002C10.1411 15.0002 10.2705 14.9729 10.3902 14.92C10.5143 14.8751 10.627 14.8034 10.7204 14.7101C10.8137 14.6168 10.8853 14.5041 10.9302 14.38C10.9746 14.2584 10.995 14.1294 10.9902 14C10.991 13.8684 10.9658 13.7379 10.916 13.6161C10.8662 13.4943 10.7929 13.3834 10.7002 13.29C10.6073 13.1963 10.4967 13.1219 10.3748 13.0711C10.253 13.0203 10.1223 12.9942 9.99024 12.9942C9.85823 12.9942 9.72752 13.0203 9.60566 13.0711C9.4838 13.1219 9.3732 13.1963 9.28024 13.29ZM9.99024 0C8.01243 0 6.07903 0.58649 4.43454 1.6853C2.79004 2.78412 1.50832 4.3459 0.751444 6.17317C-0.00543278 8.00043 -0.203466 10.0111 0.182386 11.9509C0.568238 13.8907 1.52065 15.6725 2.91917 17.0711C4.3177 18.4696 6.09953 19.422 8.03934 19.8079C9.97915 20.1937 11.9898 19.9957 13.8171 19.2388C15.6443 18.4819 17.2061 17.2002 18.3049 15.5557C19.4037 13.9112 19.9902 11.9778 19.9902 10C19.9902 8.68678 19.7316 7.38642 19.229 6.17317C18.7265 4.95991 17.9899 3.85752 17.0613 2.92893C16.1327 2.00035 15.0303 1.26375 13.8171 0.761205C12.6038 0.258658 11.3035 0 9.99024 0ZM9.99024 18C8.40799 18 6.86127 17.5308 5.54568 16.6518C4.23008 15.7727 3.2047 14.5233 2.5992 13.0615C1.9937 11.5997 1.83528 9.99113 2.14396 8.43928C2.45264 6.88743 3.21456 5.46197 4.33338 4.34315C5.4522 3.22433 6.87767 2.4624 8.42952 2.15372C9.98137 1.84504 11.5899 2.00346 13.0517 2.60896C14.5135 3.21447 15.7629 4.23984 16.642 5.55544C17.521 6.87103 17.9902 8.41775 17.9902 10C17.9902 12.1217 17.1474 14.1566 15.6471 15.6569C14.1468 17.1571 12.112 18 9.99024 18ZM9.99024 5C9.4633 4.99966 8.94557 5.13812 8.48915 5.40144C8.03272 5.66476 7.65371 6.04366 7.39024 6.5C7.31788 6.61382 7.2693 6.7411 7.24741 6.87418C7.22552 7.00726 7.23078 7.14339 7.26287 7.27439C7.29495 7.40538 7.35321 7.52854 7.43412 7.63643C7.51504 7.74433 7.61694 7.83475 7.73371 7.90224C7.85047 7.96974 7.97969 8.01292 8.11357 8.02918C8.24746 8.04544 8.38325 8.03445 8.51278 7.99688C8.6423 7.9593 8.76289 7.89591 8.86729 7.81052C8.97168 7.72513 9.05772 7.6195 9.12024 7.5C9.20834 7.3474 9.33521 7.22078 9.48799 7.13298C9.64076 7.04518 9.81403 6.9993 9.99024 7C10.2555 7 10.5098 7.10536 10.6973 7.29289C10.8849 7.48043 10.9902 7.73478 10.9902 8C10.9902 8.26522 10.8849 8.51957 10.6973 8.70711C10.5098 8.89464 10.2555 9 9.99024 9C9.72502 9 9.47067 9.10536 9.28313 9.29289C9.0956 9.48043 8.99024 9.73478 8.99024 10V11C8.99024 11.2652 9.0956 11.5196 9.28313 11.7071C9.47067 11.8946 9.72502 12 9.99024 12C10.2555 12 10.5098 11.8946 10.6973 11.7071C10.8849 11.5196 10.9902 11.2652 10.9902 11V10.82C11.6516 10.58 12.2076 10.1152 12.561 9.50687C12.9144 8.89851 13.0428 8.18529 12.9236 7.49189C12.8045 6.79849 12.4454 6.16902 11.9092 5.71352C11.373 5.25801 10.6938 5.00546 9.99024 5Z" fill="#021C64"/>
</svg>
