<svg width="12" height="12" viewBox="0 0 12 12" fill="none" xmlns="http://www.w3.org/2000/svg">
<path d="M11.0002 0.00018549C10.735 0.00018549 10.4806 0.105543 10.2931 0.293079C10.1055 0.480615 10.0002 0.734969 10.0002 1.00019V8.59019L1.71019 0.290185C1.52188 0.101882 1.26649 -0.00390625 1.00019 -0.00390625C0.733884 -0.00390625 0.478489 0.101882 0.290185 0.290185C0.101882 0.478489 -0.00390625 0.733884 -0.00390625 1.00019C-0.00390625 1.26649 0.101882 1.52188 0.290185 1.71019L8.59019 10.0002H1.00019C0.734969 10.0002 0.480615 10.1055 0.293079 10.2931C0.105543 10.4806 0.00018549 10.735 0.00018549 11.0002C0.00018549 11.2654 0.105543 11.5198 0.293079 11.7073C0.480615 11.8948 0.734969 12.0002 1.00019 12.0002H11.0002C11.1309 11.9986 11.26 11.9714 11.3802 11.9202C11.6245 11.8187 11.8187 11.6245 11.9202 11.3802C11.9714 11.26 11.9986 11.1309 12.0002 11.0002V1.00019C12.0002 0.734969 11.8948 0.480615 11.7073 0.293079C11.5198 0.105543 11.2654 0.00018549 11.0002 0.00018549Z" fill="#00A398"/>
</svg>
