<svg width="25" height="24" viewBox="0 0 25 24" fill="none" xmlns="http://www.w3.org/2000/svg">
<rect x="0.164062" width="24" height="24" rx="12" fill="black"/>
<path d="M19.092 15.5177L16.7808 17.9323C16.7306 17.9847 16.6698 18.0266 16.6023 18.0551C16.5347 18.0837 16.4619 18.0985 16.3882 18.0984H5.43237C5.38009 18.0984 5.32895 18.0835 5.28524 18.0556C5.24152 18.0277 5.20714 17.9879 5.1863 17.9412C5.16546 17.8945 5.15908 17.8429 5.16795 17.7927C5.17681 17.7425 5.20054 17.6959 5.2362 17.6587L7.54907 15.2441C7.59918 15.1918 7.65976 15.15 7.72709 15.1215C7.79443 15.0929 7.86706 15.0781 7.94051 15.0779H18.8958C18.948 15.0779 18.9992 15.0928 19.0429 15.1207C19.0866 15.1487 19.121 15.1884 19.1419 15.2351C19.1627 15.2819 19.1691 15.3335 19.1602 15.3837C19.1513 15.4338 19.1276 15.4804 19.092 15.5177ZM16.7808 10.6553C16.7306 10.6028 16.6698 10.561 16.6023 10.5324C16.5347 10.5039 16.4619 10.4891 16.3882 10.4892H5.43237C5.38009 10.4892 5.32895 10.504 5.28524 10.532C5.24152 10.5599 5.20714 10.5997 5.1863 10.6464C5.16546 10.6931 5.15908 10.7447 5.16795 10.7949C5.17681 10.8451 5.20054 10.8916 5.2362 10.9289L7.54907 13.3435C7.59918 13.3958 7.65976 13.4375 7.72709 13.4661C7.79443 13.4947 7.86706 13.5095 7.94051 13.5096H18.8958C18.948 13.5096 18.9992 13.4948 19.0429 13.4668C19.0866 13.4389 19.121 13.3991 19.1419 13.3524C19.1627 13.3057 19.1691 13.2541 19.1602 13.2039C19.1513 13.1537 19.1276 13.1072 19.092 13.0699L16.7808 10.6553ZM5.43237 8.92086H16.3882C16.4619 8.92088 16.5347 8.90616 16.6023 8.87758C16.6698 8.849 16.7306 8.80718 16.7808 8.75473L19.092 6.3401C19.1276 6.30287 19.1513 6.25629 19.1602 6.2061C19.1691 6.15591 19.1627 6.1043 19.1419 6.05759C19.121 6.01088 19.0866 5.97112 19.0429 5.9432C18.9992 5.91527 18.948 5.90039 18.8958 5.90039H7.94051C7.86706 5.90051 7.79443 5.91532 7.72709 5.94389C7.65976 5.97247 7.59918 6.0142 7.54907 6.06652L5.2368 8.48114C5.20117 8.51833 5.17746 8.56487 5.16857 8.61499C5.15968 8.66513 5.16601 8.71671 5.18678 8.76339C5.20754 8.81008 5.24184 8.84983 5.28546 8.8778C5.32909 8.90577 5.38014 8.92073 5.43237 8.92086Z" fill="url(#paint0_linear_5614_1970)"/>
<defs>
<linearGradient id="paint0_linear_5614_1970" x1="6.34583" y1="18.3891" x2="17.4998" y2="5.4823" gradientUnits="userSpaceOnUse">
<stop offset="0.08" stop-color="#9945FF"/>
<stop offset="0.3" stop-color="#8752F3"/>
<stop offset="0.5" stop-color="#5497D5"/>
<stop offset="0.6" stop-color="#43B4CA"/>
<stop offset="0.72" stop-color="#28E0B9"/>
<stop offset="0.97" stop-color="#19FB9B"/>
</linearGradient>
</defs>
</svg>
