<svg width="25" height="24" viewBox="0 0 25 24" fill="none" xmlns="http://www.w3.org/2000/svg">
<path fill-rule="evenodd" clip-rule="evenodd" d="M12.8699 2.3C12.6699 2.1 12.4699 2 12.1699 2C11.8699 2 11.6699 2.1 11.4699 2.3L4.46992 9.3C4.27569 9.49423 4.16992 9.72202 4.16992 10C4.16992 10.2518 4.29672 10.5268 4.46992 10.7C4.52217 10.7523 4.56229 10.7954 4.60824 10.831C4.82609 11 5.17502 11 7.56992 11H19.1699C19.7699 11 20.1699 10.6 20.1699 10C20.1699 9.4 19.7699 9 19.1699 9H7.56992L12.8699 3.7C13.2699 3.3 13.2699 2.7 12.8699 2.3ZM11.4699 21.7C11.6699 21.9 11.8699 22 12.1699 22C12.4699 22 12.6699 21.9 12.8699 21.7L19.8699 14.7C20.0642 14.5058 20.1699 14.278 20.1699 14C20.1699 13.7482 20.0431 13.4732 19.8699 13.3C19.8177 13.2477 19.7776 13.2046 19.7316 13.169C19.5137 13 19.1648 13 16.7699 13H5.16992C4.56992 13 4.16992 13.4 4.16992 14C4.16992 14.6 4.56992 15 5.16992 15H16.7699L11.4699 20.3C11.0699 20.7 11.0699 21.3 11.4699 21.7Z" fill="#697E8D"/>
</svg>
