<svg width="32" height="32" viewBox="0 0 32 32" fill="none" xmlns="http://www.w3.org/2000/svg">
<path fill-rule="evenodd" clip-rule="evenodd" d="M6.96917 3.19922H25.4009C25.8406 3.19922 26.2469 3.42711 26.4662 3.79684L31.8363 12.8488C32.1146 13.3183 32.032 13.9108 31.6347 14.2914L16.8539 28.4567C16.3751 28.9156 15.6049 28.9156 15.126 28.4567L0.365265 14.3106C-0.0411747 13.9211 -0.117283 13.3113 0.181592 12.8389L5.92159 3.7678C6.14514 3.41452 6.54183 3.19922 6.96917 3.19922ZM23.021 7.24063V9.78047H17.7706V11.5414C21.4581 11.7296 24.2247 12.5025 24.2453 13.4289L24.2451 15.3602C24.2246 16.2866 21.4581 17.0595 17.7706 17.2477V21.5693H14.2842V17.2477C10.5966 17.0595 7.82999 16.2866 7.80946 15.3602L7.80961 13.4289C7.83011 12.5025 10.5966 11.7296 14.2842 11.5414V9.78047H9.03374V7.24063H23.021ZM16.0274 15.9209C19.9626 15.9209 23.2519 15.2673 24.0568 14.3945C23.3742 13.6544 20.9051 13.072 17.7706 12.912V14.7557C17.2087 14.7844 16.6255 14.7995 16.0274 14.7995C15.4292 14.7995 14.846 14.7844 14.2842 14.7557V12.912C11.1496 13.072 8.68052 13.6544 7.9979 14.3945C8.80288 15.2673 12.0921 15.9209 16.0274 15.9209Z" fill="#009393"/>
<path fill-rule="evenodd" clip-rule="evenodd" d="M23.0201 7.24023V9.78008H17.7697V11.541C21.4572 11.7292 24.2239 12.5021 24.2444 13.4285L24.2443 15.3598C24.2237 16.2862 21.4572 17.0591 17.7697 17.2473V21.5689H14.2833V17.2473C10.5958 17.0591 7.82912 16.2862 7.80859 15.3598L7.80874 13.4285C7.82924 12.5021 10.5958 11.7292 14.2833 11.541V9.78008H9.03288V7.24023H23.0201ZM16.0265 15.9205C19.9618 15.9205 23.251 15.2669 24.056 14.3942C23.3733 13.654 20.9043 13.0716 17.7697 12.9116V14.7553C17.2078 14.784 16.6246 14.7991 16.0265 14.7991C15.4284 14.7991 14.8451 14.784 14.2833 14.7553V12.9116C11.1487 13.0716 8.67965 13.654 7.99704 14.3942C8.80201 15.2669 12.0912 15.9205 16.0265 15.9205Z" fill="white"/>
</svg>
