<svg width="25" height="24" viewBox="0 0 25 24" fill="none" xmlns="http://www.w3.org/2000/svg">
<rect x="0.164062" width="24" height="24" rx="12" fill="#FF060A"/>
<g clip-path="url(#clip0_5614_1958)">
<path d="M18.3965 9.31705C17.7637 8.73276 16.8883 7.84049 16.1753 7.20768L16.1331 7.17815C16.0629 7.12178 15.9838 7.07758 15.899 7.04737C14.1798 6.72674 6.17898 5.23119 6.02289 5.25018C5.97915 5.2563 5.93734 5.27216 5.90055 5.29659L5.86047 5.32823C5.81112 5.37834 5.77364 5.43889 5.75078 5.50541L5.74023 5.53284V5.6826V5.7058C6.64094 8.21385 10.1973 16.4299 10.8977 18.3578C10.9398 18.4886 11.02 18.7375 11.1698 18.7502H11.2035C11.2837 18.7502 11.6254 18.2988 11.6254 18.2988C11.6254 18.2988 17.7341 10.8906 18.3522 10.1017C18.4322 10.0046 18.5028 9.90004 18.5631 9.78955C18.5785 9.70311 18.5713 9.61415 18.5421 9.53135C18.5129 9.44854 18.4627 9.37472 18.3965 9.31705ZM13.1927 10.1798L15.7998 8.01768L17.3291 9.42674L13.1927 10.1798ZM12.1802 10.0385L7.69141 6.35971L14.954 7.69916L12.1802 10.0385ZM12.5852 11.0024L17.1794 10.2621L11.927 16.5902L12.5852 11.0024ZM7.0818 6.72674L11.8047 10.7346L11.1212 16.5944L7.0818 6.72674Z" fill="white"/>
</g>
<defs>
<clipPath id="clip0_5614_1958">
<rect width="13.5" height="13.5" fill="white" transform="translate(5.41406 5.25)"/>
</clipPath>
</defs>
</svg>
