<svg width="32" height="32" viewBox="0 0 32 32" fill="none" xmlns="http://www.w3.org/2000/svg">
<path d="M25.3327 9.33333H23.9993V8C23.9993 6.93913 23.5779 5.92172 22.8278 5.17157C22.0776 4.42143 21.0602 4 19.9993 4H6.66602C5.60515 4 4.58773 4.42143 3.83759 5.17157C3.08744 5.92172 2.66602 6.93913 2.66602 8V24C2.66602 25.0609 3.08744 26.0783 3.83759 26.8284C4.58773 27.5786 5.60515 28 6.66602 28H25.3327C26.3935 28 27.411 27.5786 28.1611 26.8284C28.9113 26.0783 29.3327 25.0609 29.3327 24V13.3333C29.3327 12.2725 28.9113 11.2551 28.1611 10.5049C27.411 9.75476 26.3935 9.33333 25.3327 9.33333ZM6.66602 6.66667H19.9993C20.353 6.66667 20.6921 6.80714 20.9422 7.05719C21.1922 7.30724 21.3327 7.64638 21.3327 8V9.33333H6.66602C6.31239 9.33333 5.97326 9.19286 5.72321 8.94281C5.47316 8.69276 5.33268 8.35362 5.33268 8C5.33268 7.64638 5.47316 7.30724 5.72321 7.05719C5.97326 6.80714 6.31239 6.66667 6.66602 6.66667ZM26.666 20H25.3327C24.9791 20 24.6399 19.8595 24.3899 19.6095C24.1398 19.3594 23.9993 19.0203 23.9993 18.6667C23.9993 18.313 24.1398 17.9739 24.3899 17.7239C24.6399 17.4738 24.9791 17.3333 25.3327 17.3333H26.666V20ZM26.666 14.6667H25.3327C24.2718 14.6667 23.2544 15.0881 22.5043 15.8382C21.7541 16.5884 21.3327 17.6058 21.3327 18.6667C21.3327 19.7275 21.7541 20.7449 22.5043 21.4951C23.2544 22.2452 24.2718 22.6667 25.3327 22.6667H26.666V24C26.666 24.3536 26.5255 24.6928 26.2755 24.9428C26.0254 25.1929 25.6863 25.3333 25.3327 25.3333H6.66602C6.31239 25.3333 5.97326 25.1929 5.72321 24.9428C5.47316 24.6928 5.33268 24.3536 5.33268 24V11.7733C5.76104 11.924 6.21193 12.0007 6.66602 12H25.3327C25.6863 12 26.0254 12.1405 26.2755 12.3905C26.5255 12.6406 26.666 12.9797 26.666 13.3333V14.6667Z" fill="#00C7F9"/>
</svg>
