<svg width="28" height="18" viewBox="0 0 28 18" fill="none" xmlns="http://www.w3.org/2000/svg">
<path d="M1.62661 3.20013C1.88735 3.2767 2.13802 3.38412 2.37328 3.52013C3.1997 4.01338 4.14419 4.2738 5.10661 4.2738C6.06904 4.2738 7.01353 4.01338 7.83995 3.52013C8.36056 3.22568 8.9485 3.07093 9.54661 3.07093C10.1447 3.07093 10.7327 3.22568 11.2533 3.52013C12.0897 3.99839 13.0365 4.24997 13.9999 4.24997C14.9634 4.24997 15.9102 3.99839 16.7466 3.52013C17.2672 3.22568 17.8552 3.07093 18.4533 3.07093C19.0514 3.07093 19.6393 3.22568 20.1599 3.52013C21.0049 4.00305 21.9601 4.2602 22.9333 4.2668C23.8735 4.26486 24.7954 4.00672 25.6 3.52013C25.8352 3.38412 26.0859 3.2767 26.3466 3.20013C26.6861 3.10112 26.9723 2.8713 27.1424 2.56124C27.3124 2.25118 27.3523 1.88628 27.2533 1.5468C27.1543 1.20732 26.9245 0.921084 26.6144 0.751051C26.3043 0.581018 25.9394 0.54112 25.6 0.640134C25.1325 0.784399 24.6846 0.985929 24.2666 1.24013C23.8419 1.48853 23.3587 1.61944 22.8666 1.61944C22.3746 1.61944 21.8914 1.48853 21.4666 1.24013C20.5421 0.721564 19.4999 0.449219 18.4399 0.449219C17.38 0.449219 16.3378 0.721564 15.4133 1.24013C14.984 1.48954 14.4964 1.62091 13.9999 1.62091C13.5035 1.62091 13.0159 1.48954 12.5866 1.24013C11.6621 0.721564 10.6199 0.449219 9.55995 0.449219C8.49996 0.449219 7.45776 0.721564 6.53328 1.24013C6.10853 1.48853 5.62533 1.61944 5.13328 1.61944C4.64123 1.61944 4.15804 1.48853 3.73328 1.24013C3.31527 0.985929 2.86743 0.784399 2.39995 0.640134C2.06047 0.54112 1.69556 0.581018 1.3855 0.751051C1.07544 0.921084 0.845629 1.20732 0.746615 1.5468C0.6476 1.88628 0.687498 2.25118 0.857531 2.56124C1.02756 2.8713 1.3138 3.10112 1.65328 3.20013H1.62661ZM25.6266 13.9735C25.1591 14.1177 24.7113 14.3193 24.2933 14.5735C23.8685 14.8219 23.3853 14.9528 22.8933 14.9528C22.4012 14.9528 21.918 14.8219 21.4933 14.5735C20.5688 14.0549 19.5266 13.7826 18.4666 13.7826C17.4066 13.7826 16.3644 14.0549 15.4399 14.5735C15.0107 14.8229 14.5231 14.9542 14.0266 14.9542C13.5302 14.9542 13.0425 14.8229 12.6133 14.5735C11.6888 14.0549 10.6466 13.7826 9.58661 13.7826C8.52663 13.7826 7.48442 14.0549 6.55995 14.5735C6.13519 14.8219 5.652 14.9528 5.15995 14.9528C4.6679 14.9528 4.1847 14.8219 3.75995 14.5735C3.34194 14.3193 2.8941 14.1177 2.42661 13.9735C2.25852 13.9244 2.08242 13.909 1.90836 13.928C1.7343 13.9471 1.5657 14.0002 1.41217 14.0844C1.25865 14.1686 1.1232 14.2822 1.01358 14.4187C0.903963 14.5553 0.822308 14.712 0.773281 14.8801C0.724254 15.0482 0.708816 15.2243 0.727847 15.3984C0.746878 15.5724 0.800006 15.741 0.884198 15.8946C0.96839 16.0481 1.082 16.1835 1.21853 16.2932C1.35507 16.4028 1.51186 16.4844 1.67995 16.5335C1.94069 16.61 2.19135 16.7175 2.42661 16.8535C3.25304 17.3467 4.19752 17.6071 5.15995 17.6071C6.12237 17.6071 7.06686 17.3467 7.89328 16.8535C8.41389 16.559 9.00183 16.4043 9.59995 16.4043C10.1981 16.4043 10.786 16.559 11.3066 16.8535C12.143 17.3317 13.0898 17.5833 14.0533 17.5833C15.0168 17.5833 15.9635 17.3317 16.7999 16.8535C17.3206 16.559 17.9085 16.4043 18.5066 16.4043C19.1047 16.4043 19.6927 16.559 20.2133 16.8535C21.0583 17.3364 22.0134 17.5935 22.9866 17.6001C23.9268 17.5982 24.8488 17.3401 25.6533 16.8535C25.8885 16.7175 26.1392 16.61 26.3999 16.5335C26.7394 16.4345 27.0257 16.2046 27.1957 15.8946C27.3657 15.5845 27.4056 15.2196 27.3066 14.8801C27.2076 14.5407 26.9778 14.2544 26.6677 14.0844C26.3577 13.9143 25.9928 13.8745 25.6533 13.9735H25.6266ZM25.6266 7.3068C25.1591 7.45106 24.7113 7.6526 24.2933 7.9068C23.8685 8.15519 23.3853 8.2861 22.8933 8.2861C22.4012 8.2861 21.918 8.15519 21.4933 7.9068C20.5688 7.38823 19.5266 7.11589 18.4666 7.11589C17.4066 7.11589 16.3644 7.38823 15.4399 7.9068C15.0107 8.15621 14.5231 8.28758 14.0266 8.28758C13.5302 8.28758 13.0425 8.15621 12.6133 7.9068C11.6888 7.38823 10.6466 7.11589 9.58661 7.11589C8.52663 7.11589 7.48442 7.38823 6.55995 7.9068C6.13519 8.15519 5.652 8.2861 5.15995 8.2861C4.6679 8.2861 4.1847 8.15519 3.75995 7.9068C3.34194 7.6526 2.8941 7.45106 2.42661 7.3068C2.25203 7.24089 2.06556 7.21236 1.87925 7.22305C1.69295 7.23375 1.51096 7.28344 1.34507 7.3689C1.17918 7.45436 1.03307 7.57369 0.9162 7.71917C0.799331 7.86465 0.714303 8.03305 0.666615 8.21347C0.617588 8.38156 0.602149 8.55766 0.62118 8.73172C0.640212 8.90578 0.69334 9.07438 0.777531 9.22791C0.861723 9.38144 0.97533 9.51688 1.11186 9.6265C1.2484 9.73612 1.40519 9.81777 1.57328 9.8668C1.83402 9.94336 2.08468 10.0508 2.31995 10.1868C3.14637 10.68 4.09086 10.9405 5.05328 10.9405C6.0157 10.9405 6.96019 10.68 7.78661 10.1868C8.30723 9.89234 8.89517 9.73759 9.49328 9.73759C10.0914 9.73759 10.6793 9.89234 11.1999 10.1868C12.0363 10.6651 12.9831 10.9166 13.9466 10.9166C14.9101 10.9166 15.8569 10.6651 16.6933 10.1868C17.2139 9.89234 17.8018 9.73759 18.3999 9.73759C18.9981 9.73759 19.586 9.89234 20.1066 10.1868C20.9516 10.6697 21.9067 10.9269 22.8799 10.9335C23.8202 10.9315 24.7421 10.6734 25.5466 10.1868C25.7819 10.0508 26.0325 9.94336 26.2933 9.8668C26.6328 9.76779 26.919 9.53797 27.089 9.22791C27.2591 8.91785 27.299 8.55294 27.1999 8.21347C27.1009 7.87399 26.8711 7.58775 26.5611 7.41772C26.251 7.24768 25.8861 7.20779 25.5466 7.3068H25.6266Z" fill="#00C7F9"/>
</svg>
