<svg width="32" height="32" viewBox="0 0 32 32" fill="none" xmlns="http://www.w3.org/2000/svg">
<path d="M14.6663 30.6669C14.533 30.6669 14.2663 30.6669 14.133 30.5335C13.5997 30.2669 13.333 29.7335 13.333 29.2002L14.533 20.0002H3.99965C3.46632 20.0002 3.06632 19.7335 2.79965 19.2002C2.53299 18.6669 2.66632 18.1335 2.93299 17.7335L16.2663 1.73353C16.6663 1.33353 17.333 1.20019 17.8663 1.46686C18.3997 1.73353 18.6663 2.26686 18.6663 2.80019L17.4663 12.0002H27.9997C28.533 12.0002 28.933 12.2669 29.1997 12.8002C29.4663 13.3335 29.333 13.8669 29.0663 14.2669L15.733 30.2669C15.4663 30.5335 15.0663 30.6669 14.6663 30.6669ZM6.79965 17.3335H15.9997C16.3997 17.3335 16.7997 17.4669 16.933 17.7335C17.1997 18.0002 17.333 18.4002 17.1997 18.8002L16.3997 24.9335L24.933 14.6669H15.9997C15.5997 14.6669 15.1997 14.5335 15.0663 14.2669C14.7997 14.0002 14.6663 13.6002 14.7997 13.2002L15.5997 7.06686L6.79965 17.3335Z" fill="#022173"/>
</svg>
