<svg width="24" height="24" viewBox="0 0 24 24" fill="none" xmlns="http://www.w3.org/2000/svg">
<rect width="24" height="24" fill="#00C7F9"/>
<g clip-path="url(#clip0_6355_9)">
<path fill-rule="evenodd" clip-rule="evenodd" d="M2 15.4839L12.0536 4.07235L22.1085 15.4839L15.9741 20.5828H8.14096L2 15.4839ZM12.0549 18.5603H12.1637C14.1797 18.5039 15.9243 16.969 15.9204 15.0055C15.9204 14.3501 15.6084 13.4378 15.2925 12.9083C15.1186 12.5779 14.0683 10.7328 12.1414 7.37287C12.1126 7.29161 11.992 7.29161 11.9645 7.37287C11.9645 7.37287 9.1437 12.2817 8.81339 12.9122C8.49749 13.4417 8.18553 14.354 8.18553 15.0094C8.18553 16.969 9.93016 18.5052 11.9487 18.5616H12.0536L12.0549 18.5603Z" fill="#022173"/>
</g>
<defs>
<clipPath id="clip0_6355_9">
<rect width="20.125" height="16.6552" fill="white" transform="translate(2 4)"/>
</clipPath>
</defs>
</svg>
