<svg width="32" height="32" viewBox="0 0 32 32" fill="none" xmlns="http://www.w3.org/2000/svg">
<rect width="32" height="32" rx="4" fill="#00C7F9"/>
<g transform="translate(1.5, 4)">
<path fill-rule="evenodd" clip-rule="evenodd" d="M0 16.5475L14.4872 0.103516L28.9763 16.5475L20.1366 23.895H8.84909L0 16.5475ZM14.4891 20.9806H14.6459C17.5508 20.8993 20.0649 18.6875 20.0592 15.8581C20.0592 14.9137 19.6097 13.5991 19.1544 12.836C18.9039 12.36 17.3903 9.7012 14.6137 4.85955C14.5722 4.74244 14.3984 4.74244 14.3588 4.85955C14.3588 4.85955 10.294 11.9331 9.81805 12.8417C9.36284 13.6047 8.91331 14.9194 8.91331 15.8638C8.91331 18.6875 11.4273 20.9012 14.3361 20.9824H14.4872L14.4891 20.9806Z" fill="#022173"/>
</g>
</svg>
