<svg width="216" height="149" viewBox="0 0 216 149" fill="none" xmlns="http://www.w3.org/2000/svg">
<path d="M95.1726 75.8512C100.176 65.1303 107.726 68.1969 120.015 65.1209C123.55 64.236 128.092 64.0526 126.139 58.079C124.847 54.1287 114.233 59.1302 111.375 53.2102C107.089 44.3312 86.269 45.5559 77.39 51.067C62.9351 60.0389 57.2324 72.054 56.595 90.2413C55.9399 108.932 68.5784 121.165 64.9043 126.37C61.2302 131.575 62.4549 149.026 64.9043 148.414C67.3537 147.802 74.3954 136.459 79.9065 137.378C85.4176 138.296 89.1619 143.27 104.027 144.274C124.541 145.66 142.059 135.54 151.245 119.62C160.43 103.699 153.694 85.6344 152.469 80.7356C151.245 75.8369 151.245 76.1431 155.225 70.3258C159.205 64.5085 160.43 45.832 158.593 46.4444C156.756 47.0567 157.062 51.037 153.694 55.3234C150.326 59.6098 144.466 62.6858 141.711 67.5846C138.955 72.4833 143.59 77.3678 140.835 76.1431C138.079 74.9184 131.343 78.2863 126.139 79.511C120.934 80.7356 116.035 73.3875 114.504 73.6937C112.973 73.9999 116.953 85.9406 124.301 88.0838C131.65 90.227 140.222 85.3282 144.203 89.0023C148.183 92.6764 143.261 107.972 126.139 115.654C118.186 119.221 110.833 117.244 105.672 113.745C102.456 111.565 103.854 107.088 107.386 105.47C113.145 102.833 118.757 99.3367 119.097 96.9627C119.709 92.6763 104.4 99.7183 99.1954 96.3504C93.9905 92.9825 90.8862 85.0363 95.1726 75.8512Z" fill="url(#paint0_linear_4097_7509)"/>
<path d="M103.338 29.7717C104.096 30.5121 104.55 32.1119 104.5 33C104.446 33.9483 103.833 34.181 102.924 34.8161C101.165 36.046 98.4037 35.8476 96.8369 34.3167C95.993 33.4922 95.3495 32.4762 95.5 31.5C95.6289 30.6638 96.4223 29.8515 97.2507 29.2724C99.046 28.0174 101.771 28.2409 103.338 29.7717Z" fill="url(#paint1_linear_4097_7509)"/>
<path d="M102.789 42.2705C102.214 41.8085 102.025 41.3319 102 40.7127C101.973 40.0515 102.148 39.2466 102.735 38.7447C103.871 37.7726 105.799 37.7231 106.99 38.6784C107.631 39.193 107.675 40.0256 107.637 40.7127C107.604 41.3013 107.58 41.7466 107.044 42.2042C105.885 43.1962 103.98 43.2258 102.789 42.2705Z" fill="url(#paint2_linear_4097_7509)"/>
<path d="M94.0337 20.195C96.4463 23.2909 99.9952 25.3196 103.791 26.1423C107.844 27.0207 112.179 26.5241 115.714 24.4833C122.559 20.5312 124.318 11.9919 119.329 5.59057C116.642 2.14276 110.402 2.33591 106.14 1.71812C102.489 1.1889 100.872 -0.558523 97.6491 1.30221C90.6639 5.33511 89.0452 13.7937 94.0337 20.195Z" fill="url(#paint3_linear_4097_7509)"/>
<defs>
<linearGradient id="paint0_linear_4097_7509" x1="172" y1="59.5" x2="76.5" y2="107.5" gradientUnits="userSpaceOnUse">
<stop stop-color="#00C7F9"/>
<stop offset="1" stop-color="#009AD6"/>
</linearGradient>
<linearGradient id="paint1_linear_4097_7509" x1="106.036" y1="33.8036" x2="98.1806" y2="29.8553" gradientUnits="userSpaceOnUse">
<stop stop-color="#00C7F9"/>
<stop offset="1" stop-color="#009AD6"/>
</linearGradient>
<linearGradient id="paint2_linear_4097_7509" x1="102.009" y1="39.6576" x2="107.723" y2="41.8631" gradientUnits="userSpaceOnUse">
<stop stop-color="#00C7F9"/>
<stop offset="1" stop-color="#009AD6"/>
</linearGradient>
<linearGradient id="paint3_linear_4097_7509" x1="108.516" y1="32.7475" x2="105.972" y2="4.14513" gradientUnits="userSpaceOnUse">
<stop stop-color="#00C7F9"/>
<stop offset="1" stop-color="#009AD6"/>
</linearGradient>
</defs>
</svg>
