<svg width="129" height="24" viewBox="0 0 129 24" fill="none" xmlns="http://www.w3.org/2000/svg">
<g clip-path="url(#clip0_5729_7171)">
<path fill-rule="evenodd" clip-rule="evenodd" d="M0 16.5475L14.4872 0.103516L28.9763 16.5475L20.1366 23.895H8.84909L0 16.5475ZM14.4891 20.9806H14.6459C17.5508 20.8993 20.0649 18.6875 20.0592 15.8581C20.0592 14.9137 19.6097 13.5991 19.1544 12.836C18.9039 12.36 17.3903 9.7012 14.6137 4.85955C14.5722 4.74244 14.3984 4.74244 14.3588 4.85955C14.3588 4.85955 10.294 11.9331 9.81805 12.8417C9.36284 13.6047 8.91331 14.9194 8.91331 15.8638C8.91331 18.6875 11.4273 20.9012 14.3361 20.9824H14.4872L14.4891 20.9806Z" fill="#022173"/>
<path d="M59.2411 21.5843H55.0688L49.1114 10.1268L43.1541 21.5843H38.9761L49.1133 2.37695L59.243 21.5843H59.2411Z" fill="#022173"/>
<path d="M79.3973 18.8164C80.0074 18.2309 80.5325 17.5642 80.9744 16.8162C81.8471 15.3391 82.2834 13.6921 82.2834 11.875C82.2834 10.058 81.8433 8.40719 80.9612 6.92069C80.0791 5.4342 78.8779 4.26314 77.3555 3.4075C75.8331 2.55187 74.1275 2.125 72.2406 2.125C70.3536 2.125 68.6707 2.55187 67.1389 3.4075C65.6071 4.26125 64.402 5.43231 63.5199 6.92069C62.6378 8.40719 62.1978 10.0599 62.1978 11.875C62.1978 13.6902 62.6378 15.3391 63.5199 16.8162C64.402 18.2951 65.6071 19.4567 67.1389 20.301C68.6443 21.1321 70.3234 21.5552 72.1745 21.5684L83.7227 21.5817V18.8145H79.3992L79.3973 18.8164ZM77.5746 14.8877C77.0363 15.7924 76.2977 16.5026 75.3609 17.0202C74.4391 17.5283 73.4135 17.787 72.2802 17.7946H72.199C71.0676 17.7851 70.0401 17.5283 69.1184 17.0183C68.1815 16.5008 67.443 15.7906 66.9047 14.8858C66.3664 13.9811 66.0963 12.9743 66.0963 11.8637C66.0963 10.7531 66.3664 9.74258 66.9047 8.83217C67.443 7.92365 68.1815 7.20591 69.1184 6.6827C70.0552 6.1595 71.0959 5.89885 72.2387 5.89885C73.3833 5.89885 74.4221 6.1595 75.359 6.6827C76.2958 7.20591 77.0344 7.92176 77.5727 8.83217C78.111 9.74258 78.3811 10.7512 78.3811 11.8637C78.3811 12.9762 78.111 13.983 77.5727 14.8858L77.5746 14.8877Z" fill="#022173"/>
<path d="M105.212 2.41211V13.6373C105.212 15.2504 104.863 16.6821 104.166 17.9325C103.469 19.1829 102.485 20.1518 101.217 20.8413C99.9479 21.5307 98.5086 21.8744 96.8955 21.8744C95.2825 21.8744 93.8187 21.5307 92.5607 20.8413C91.3009 20.1537 90.3225 19.1791 89.6255 17.9193C88.9285 16.6594 88.5791 15.2334 88.5791 13.6392V2.41211H92.5475V13.6373C92.5475 14.544 92.7288 15.3448 93.0915 16.0437C93.4541 16.7406 93.9622 17.2808 94.6139 17.6605C95.2655 18.0401 96.0267 18.2309 96.8974 18.2309C97.7682 18.2309 98.5048 18.0401 99.1678 17.6605C99.8289 17.279 100.341 16.7406 100.703 16.0437C101.066 15.3467 101.247 14.544 101.247 13.6373V2.41211H105.216H105.212Z" fill="#022173"/>
<path d="M128.732 21.5843H124.559L118.602 10.1268L112.645 21.5843H108.467L118.604 2.37695L128.734 21.5843H128.732Z" fill="#022173"/>
</g>
<defs>
<clipPath id="clip0_5729_7171">
<rect width="129" height="24" fill="white"/>
</clipPath>
</defs>
</svg>
