<svg width="49" height="49" viewBox="0 0 49 49" fill="none" xmlns="http://www.w3.org/2000/svg">
<rect x="0.5" y="0.5" width="48" height="48" rx="24" fill="#627EEA"/>
<g clip-path="url(#clip0_5068_549)">
<path d="M24.5 8L24.2786 8.75203V30.5721L24.5 30.793L34.6284 24.806L24.5 8Z" fill="#C1CCF7"/>
<path d="M24.501 8L14.3723 24.806L24.501 30.793V20.2021V8Z" fill="white"/>
<path d="M24.4971 32.7105L24.3723 32.8626V40.6353L24.4971 40.9995L34.6317 26.7266L24.4971 32.7105Z" fill="#C1CCF7"/>
<path d="M24.501 40.9995V32.7105L14.3723 26.7266L24.501 40.9995Z" fill="white"/>
<path d="M24.4973 30.794L34.6258 24.807L24.4973 20.2031V30.794Z" fill="#8198EE"/>
<path d="M14.3723 24.807L24.501 30.794V20.2031L14.3723 24.807Z" fill="#C1CCF7"/>
</g>
<defs>
<clipPath id="clip0_5068_549">
<rect width="20.2634" height="33" fill="white" transform="translate(14.3684 8)"/>
</clipPath>
</defs>
</svg>
