<svg width="54" height="55" viewBox="0 0 54 55" fill="none" xmlns="http://www.w3.org/2000/svg">
<path d="M27 54.5C41.9117 54.5 54 42.4117 54 27.5C54 12.5883 41.9117 0.5 27 0.5C12.0883 0.5 0 12.5883 0 27.5C0 42.4117 12.0883 54.5 27 54.5Z" fill="#0D1437"/>
<path d="M25.1172 22.8688C26.3997 15.1846 34.6104 16.2025 35.5878 16.3537C36.6057 16.6615 37.5993 15.6517 37.0242 14.677C34.7616 10.8106 30.2553 8.28881 26.8317 8.11061C27.6822 7.43831 30.5361 7.06841 33.5628 7.19261C34.6293 7.23041 35.0775 5.82911 34.173 5.25671C34.0974 5.20811 34.0191 5.15411 33.9084 5.11631C29.772 3.84461 25.3332 3.72851 21.1077 4.83821C17.9757 5.65091 14.949 7.12781 12.2652 9.30401C11.1447 10.222 10.1133 11.2156 9.21154 12.2686C2.48044 20.0932 1.65154 31.5979 7.39174 40.3351C7.50784 40.5133 7.62124 40.6807 7.73734 40.8589C7.83994 40.9885 7.87774 41.0506 7.91554 41.0992C8.18014 41.4934 8.47714 41.8768 8.77954 42.2575C9.11164 42.6652 9.46534 43.0594 9.82174 43.4401C9.90814 43.5427 9.99994 43.6318 10.0998 43.7317C10.4319 44.0773 10.7721 44.4175 11.1285 44.7361C11.1528 44.7604 11.1906 44.7847 11.2149 44.8225C11.5983 45.1681 11.9925 45.4948 12.3867 45.8161C12.4731 45.8917 12.5784 45.97 12.6783 46.0456C13.0482 46.3237 13.4181 46.5937 13.788 46.8583C13.8366 46.8826 13.8744 46.9204 13.9284 46.9609C14.3469 47.239 14.7789 47.5225 15.2244 47.7736C15.3108 47.8222 15.4026 47.8762 15.4782 47.9275C15.8859 48.157 16.2909 48.373 16.6986 48.5755C16.7472 48.5998 16.785 48.6241 16.839 48.6376C17.3088 48.8671 17.7813 49.0696 18.2646 49.2613C18.3267 49.2856 18.3942 49.3099 18.4563 49.3369C18.9126 49.5151 19.3743 49.6825 19.8306 49.8175C19.8684 49.8175 19.9062 49.8418 19.9332 49.8553C20.4435 50.0227 20.9511 50.1631 21.4749 50.2873C21.4992 50.2873 21.5235 50.2873 21.537 50.3008C22.0473 50.4304 22.5549 50.5303 23.0787 50.6194H23.1408C24.2208 50.7976 25.3035 50.8975 26.397 50.938H26.4213C31.8051 51.0784 37.2483 49.3855 41.7681 45.7351C44.5302 43.4968 46.6524 40.7725 48.105 37.7701C48.1806 37.6027 48.2724 37.4245 48.3453 37.2598C48.7638 36.3283 49.1337 35.3671 49.4253 34.3978C35.2989 39.7168 23.5188 32.4754 25.1199 22.8823L25.1064 22.858L25.1118 22.8715L25.1172 22.8688Z" fill="#14909C"/>
<path d="M16.8461 25.2259C19.5947 21.5215 20.8664 22.1722 21.131 21.0274C21.4874 19.4614 15.7742 18.1006 11.3219 21.5215C17.5049 13.7833 27.1385 12.0013 35.3438 16.2565C36.4373 16.8289 37.6604 15.7327 37.034 14.677C34.7714 10.8106 30.2651 8.28881 26.8415 8.11061C27.692 7.43831 30.5459 7.06841 33.5726 7.19261C34.6391 7.23041 35.0873 5.82911 34.1828 5.25671C34.1072 5.20811 34.0289 5.15411 33.9182 5.11631C29.7818 3.84461 25.343 3.72851 21.1175 4.83821C17.9855 5.65091 14.9588 7.12781 12.275 9.30401C11.1545 10.222 10.1231 11.2156 9.22131 12.2686C2.49021 20.0932 1.66131 31.5979 7.40151 40.3351C7.51761 40.5133 7.63101 40.6807 7.74711 40.8589C7.84971 40.9885 7.88751 41.0506 7.92531 41.0992C8.18991 41.4934 8.48691 41.8768 8.78931 42.2575C14.7833 49.6636 24.3521 52.45 32.9894 50.1739C10.898 46.9042 14.2703 28.6927 16.8407 25.234V25.2205V25.2259H16.8461Z" fill="#22E1C9"/>
</svg>
