<svg width="49" height="49" viewBox="0 0 49 49" fill="none" xmlns="http://www.w3.org/2000/svg">
<rect x="0.5" y="0.5" width="48" height="48" rx="24" fill="#FF060A"/>
<g clip-path="url(#clip0_5068_567)">
<path d="M36.9658 19.1341C35.7002 17.9655 33.9494 16.181 32.5235 14.9154L32.4391 14.8563C32.2987 14.7436 32.1404 14.6552 31.9708 14.5947C28.5325 13.9535 12.5308 10.9624 12.2186 11.0004C12.1312 11.0126 12.0475 11.0443 11.9739 11.0932L11.8938 11.1565C11.7951 11.2567 11.7201 11.3778 11.6744 11.5108L11.6533 11.5657V11.8652V11.9116C13.4547 16.9277 20.5675 33.3597 21.9682 37.2157C22.0525 37.4772 22.2129 37.975 22.5124 38.0004H22.5799C22.7402 38.0004 23.4236 37.0975 23.4236 37.0975C23.4236 37.0975 35.6411 22.2813 36.8772 20.7035C37.0372 20.5091 37.1785 20.3001 37.2991 20.0791C37.3299 19.9062 37.3154 19.7283 37.257 19.5627C37.1986 19.3971 37.0982 19.2494 36.9658 19.1341ZM26.5582 20.8596L31.7725 16.5354L34.8311 19.3535L26.5582 20.8596ZM24.5332 20.5769L15.5557 13.2194L30.0808 15.8983L24.5332 20.5769ZM25.3432 22.5049L34.5316 21.0241L24.0269 33.6804L25.3432 22.5049ZM14.3364 13.9535L23.7822 21.9691L22.4153 33.6888L14.3364 13.9535Z" fill="white"/>
</g>
<defs>
<clipPath id="clip0_5068_567">
<rect width="27" height="27" fill="white" transform="translate(11 11)"/>
</clipPath>
</defs>
</svg>
