<svg width="49" height="49" viewBox="0 0 49 49" fill="none" xmlns="http://www.w3.org/2000/svg">
<g clip-path="url(#clip0_5068_540)">
<path d="M0.5 14.9375L5.60225 33.5087H6.90804L1.80176 14.9375H0.5Z" fill="white"/>
<path d="M5.40478 14.9375L10.507 33.5087H9.20123L4.10301 14.9375H5.40478Z" fill="white"/>
<path d="M27.7685 33.5087L32.8224 14.9375H28.8929L25.838 26.7783L22.1221 14.9375H18.4466L14.7952 26.6896L11.6718 14.9375H7.69801L12.8003 33.5087H16.4436L20.2723 21.1964L24.101 33.5087H27.7685Z" fill="white"/>
<path d="M44.4979 14.9375H48.4999V26.2745C48.4999 28.5637 47.7583 30.5062 46.3558 31.8846C44.9533 33.2629 42.9825 33.9924 40.6611 33.9924C38.3357 33.9924 36.3689 33.2629 34.9664 31.8846C33.5639 30.5022 32.8224 28.5637 32.8224 26.2745V23.5863L35.176 14.9375H36.8244V26.4035C36.8244 26.4038 36.8243 26.405 36.8243 26.407C36.8212 26.4911 36.7669 27.9999 37.7473 29.0433C38.4002 29.7364 39.3795 30.0871 40.6611 30.0871C41.9427 30.0871 42.9221 29.7364 43.575 29.0433C44.5554 27.9999 44.501 26.4911 44.498 26.407C44.4979 26.405 44.4979 26.4038 44.4979 26.4035V14.9375Z" fill="white"/>
</g>
<defs>
<clipPath id="clip0_5068_540">
<rect width="48" height="48" fill="white" transform="translate(0.5 0.5)"/>
</clipPath>
</defs>
</svg>
